<?xml version="1.0" encoding="UTF-8" standalone="no"?>
<svg
   xmlns:dc="http://purl.org/dc/elements/1.1/"
   xmlns:cc="http://creativecommons.org/ns#"
   xmlns:rdf="http://www.w3.org/1999/02/22-rdf-syntax-ns#"
   xmlns:svg="http://www.w3.org/2000/svg"
   xmlns="http://www.w3.org/2000/svg"
   xmlns:sodipodi="http://sodipodi.sourceforge.net/DTD/sodipodi-0.dtd"
   xmlns:inkscape="http://www.inkscape.org/namespaces/inkscape"
   sodipodi:docname="umbrella logo.svg"
   inkscape:version="1.0 (4035a4fb49, 2020-05-01)"
   id="svg8"
   version="1.1"
   viewBox="0 0 277.63815 157.13455"
   height="157.13455mm"
   width="277.63815mm">
  <defs
     id="defs2" />
  <sodipodi:namedview
     inkscape:window-maximized="1"
     inkscape:window-y="-8"
     inkscape:window-x="-8"
     inkscape:window-height="657"
     inkscape:window-width="1280"
     fit-margin-bottom="0"
     fit-margin-right="0"
     fit-margin-left="0"
     fit-margin-top="0"
     showgrid="false"
     inkscape:document-rotation="0"
     inkscape:current-layer="layer1"
     inkscape:document-units="mm"
     inkscape:cy="419.43661"
     inkscape:cx="638.78099"
     inkscape:zoom="0.33421569"
     inkscape:pageshadow="2"
     inkscape:pageopacity="0.0"
     borderopacity="1.0"
     bordercolor="#666666"
     pagecolor="#ffffff"
     id="base" />
  <metadata
     id="metadata5">
    <rdf:RDF>
      <cc:Work
         rdf:about="">
        <dc:format>image/svg+xml</dc:format>
        <dc:type
           rdf:resource="http://purl.org/dc/dcmitype/StillImage" />
        <dc:title></dc:title>
      </cc:Work>
    </rdf:RDF>
  </metadata>
  <g
     transform="translate(227.85329,-50.299314)"
     id="layer1"
     inkscape:groupmode="layer"
     inkscape:label="Capa 1">
    <path
       id="path52"
       d="m -2.7158142,206.90734 c -0.398616,-0.44047 -0.437883,-2.13326 -0.437883,-18.8767 0,-17.48268 0.02394,-18.41452 0.483854,-18.83073 0.406471,-0.36786 1.140428,-0.43789 4.589201,-0.43789 4.720293,0 4.897374,0.0778 5.268491,2.31311 0.114941,0.69232 0.568683,3.34236 1.008317,5.88898 0.439632,2.54661 1.054283,6.11849 1.365885,7.9375 0.9342492,5.45374 1.4390612,5.51005 2.3721332,0.26458 0.323566,-1.81901 0.796835,-4.43839 1.051702,-5.82083 0.254868,-1.38245 0.725369,-4.00183 1.045554,-5.82084 0.336527,-1.91184 0.78091,-3.58638 1.053217,-3.96875 0.463587,-0.65096 0.53631,-0.66261 4.584615,-0.73419 3.479869,-0.0615 4.17862,-0.008 4.535919,0.34963 0.377872,0.37787 0.422362,2.18812 0.422362,17.1856 0,14.88654 -0.04655,16.8098 -0.415774,17.17902 -0.647943,0.64795 -5.161203,0.59461 -5.760926,-0.0681 -0.393682,-0.43501 -0.437883,-1.67538 -0.437883,-12.28751 0,-6.57814 -0.10386,-11.86784 -0.234604,-11.94865 -0.566475,-0.3501 -0.8001,0.64685 -2.165725,9.24189 -0.115607,0.72761 -0.694389,4.17136 -1.286182,7.65278 -0.591794,3.48143 -1.075989,6.42822 -1.075989,6.54844 0,0.12021 -0.238125,0.4567 -0.529167,0.74774 -0.71846,0.71846 -3.2173572,0.75139 -3.9171272,0.0516 -0.435899,-0.4359 -1.014765,-3.28021 -2.164406,-10.63495 -0.929745,-5.948 -2.248349,-13.15932 -2.454732,-13.42469 -0.140219,-0.1803 -0.360516,-0.26257 -0.489548,-0.18283 -0.13149,0.0813 -0.234604,6.11878 -0.234604,13.73652 0,12.00316 -0.04859,13.64012 -0.415774,14.00731 -0.647943,0.64794 -5.161203,0.5946 -5.760926,-0.0681 z m -95.4233018,-2.80518 c -2.871474,-0.79899 -4.876184,-2.42523 -6.056484,-4.91305 l -0.6904,-1.45521 v -11.37709 -11.37708 l 0.73302,-1.49265 c 0.89635,-1.82523 2.6453,-3.48458 4.644604,-4.40664 1.32781,-0.61237 1.83831,-0.69313 4.41197,-0.69798 2.64791,-0.005 3.0595,0.0628 4.56339,0.75204 1.89692,0.86931 3.54045,2.4981 4.38284,4.34354 0.46229,1.01273 0.58259,1.8688 0.66329,4.71993 0.0954,3.36853 0.0795,3.49306 -0.4845,3.79488 -0.86817,0.46463 -5.49567,0.25307 -5.8236,-0.26624 -0.13783,-0.21828 -0.25243,-1.39092 -0.25466,-2.60585 -0.006,-3.28968 -0.90512,-4.80249 -2.85419,-4.80249 -0.48417,0 -1.24096,0.18651 -1.68176,0.41445 -1.48831,0.76964 -1.55356,1.26044 -1.55311,11.68174 2.6e-4,8.48473 0.0484,9.56309 0.46302,10.38972 0.53861,1.07388 1.40862,1.5818 2.71884,1.58728 2.03022,0.008 2.90315,-1.44367 2.90315,-4.82948 0,-1.36186 0.12136,-2.3259 0.3175,-2.52204 0.20767,-0.20768 1.30415,-0.3175 3.16996,-0.3175 3.40845,0 3.23961,-0.23579 3.07849,4.29903 -0.084,2.36577 -0.2284,3.24863 -0.70308,4.29993 -1.09787,2.43151 -3.43674,4.30374 -6.07433,4.8624 -1.78811,0.37873 -4.34727,0.34317 -5.87396,-0.0816 z m -33.317244,-0.52301 c -0.34255,-0.41275 -0.263,-0.88303 1.57055,-9.28484 0.44461,-2.03729 0.9773,-4.5376 1.18376,-5.55625 0.20646,-1.01864 0.55546,-2.68552 0.77555,-3.70416 1.4586,-6.75083 1.81173,-8.41527 2.15593,-10.16148 0.63744,-3.23394 1.19381,-5.15763 1.63334,-5.64738 0.3559,-0.39656 0.91642,-0.46302 3.9054,-0.46302 3.0862,0 3.54221,0.0579 3.94244,0.50009 0.3973,0.43903 0.70718,1.62322 1.73847,6.64366 0.13451,0.65485 0.55479,2.61938 0.93394,4.36563 0.37915,1.74625 0.85758,4.00844 1.06318,5.02708 0.20561,1.01865 0.73713,3.51896 1.18116,5.55625 0.44404,2.03729 1.04401,4.83526 1.33328,6.21771 0.28927,1.38245 0.69089,3.28745 0.89251,4.23333 0.54604,2.56183 0.45422,2.64584 -2.8922,2.64584 -3.25568,0 -3.67952,-0.24518 -3.96925,-2.29604 -0.0991,-0.70171 -0.34735,-2.10928 -0.55161,-3.12792 -0.50334,-2.51023 -0.85882,-2.77813 -3.68648,-2.77813 -3.08701,0 -3.36864,0.28322 -3.9466,3.96875 -0.25697,1.63862 -0.63059,3.04944 -0.9109,3.43959 -0.44806,0.62361 -0.63411,0.66573 -3.2522,0.73615 -2.19004,0.0589 -2.84529,-0.008 -3.10027,-0.31486 z m 13.16077,-13.86563 c 0.0463,-0.48214 -0.15599,-2.5062 -0.44951,-4.49791 -0.29352,-1.99171 -0.61279,-4.4216 -0.70949,-5.39975 -0.17003,-1.71985 -0.68207,-2.68973 -1.14345,-2.16585 -0.11633,0.13207 -0.36187,1.37123 -0.54566,2.75368 -0.18378,1.38245 -0.54358,4.06135 -0.79954,5.95312 -0.58809,4.34652 -0.55972,4.41472 1.79315,4.31122 l 1.77034,-0.0779 z m 37.373534,13.86428 c -0.23983,-0.28899 -0.19185,-0.90441 0.21147,-2.71198 0.28694,-1.286 0.77603,-3.5288 1.08687,-4.98401 1.36928,-6.41029 1.61924,-7.58386 2.25417,-10.58333 0.36964,-1.74625 0.84278,-3.9489 1.05141,-4.89479 0.20863,-0.94589 0.62857,-2.91042 0.93319,-4.36563 1.07204,-5.1213 1.39709,-6.35436 1.79599,-6.81302 0.34569,-0.39748 0.89971,-0.46302 3.91435,-0.46302 3.43017,0 3.52373,0.0154 4.03171,0.66113 0.286021,0.36362 0.64718,1.34588 0.802575,2.18281 0.155395,0.83693 0.592275,2.95044 0.970846,4.69669 0.378571,1.74625 0.913966,4.24656 1.189765,5.55625 0.275796,1.30969 0.751269,3.51234 1.0566,4.89479 0.30533,1.38245 0.723072,3.34698 0.928312,4.36563 0.20524,1.01864 0.739355,3.51895 1.186921,5.55624 1.32679,6.03947 1.392378,6.47417 1.040733,6.89788 -0.415067,0.50013 -5.489879,0.53931 -6.143966,0.0474 -0.291828,-0.21946 -0.653791,-1.43811 -1.075806,-3.62202 -0.79893,-4.13438 -0.90852,-4.24934 -4.05083,-4.24934 -2.01665,0 -2.29424,0.0626 -2.8811,0.64944 -0.37029,0.37028 -0.65392,0.96734 -0.65987,1.38906 -0.0225,1.59836 -1.00304,5.47642 -1.47116,5.81873 -0.68579,0.50146 -5.7517,0.4777 -6.17218,-0.029 z m 13.17513,-13.31933 c 0.16029,-0.2995 0.12005,-1.32689 -0.11351,-2.89811 -0.199,-1.33877 -0.54938,-3.95772 -0.77863,-5.81988 -0.43722,-3.5515 -0.92989,-4.77589 -1.40741,-3.49772 -0.2316,0.61995 -0.74037,3.99135 -1.39927,9.27238 -0.17471,1.4002 -0.24326,2.73965 -0.15235,2.97656 0.24887,0.64854 3.50132,0.62048 3.85117,-0.0332 z m 15.446873,13.39174 c -0.257683,-0.25992 -0.330729,-4.08398 -0.330729,-17.31392 0,-14.53737 0.05539,-17.02627 0.384966,-17.2998 0.283332,-0.23514 1.907397,-0.29293 6.151563,-0.21888 5.308584,0.0926 5.89253,0.15037 7.352147,0.72701 2.157605,0.85237 4.338701,3.0326 5.118295,5.11626 0.55003,1.47008 0.572196,1.92266 0.572196,11.68232 0,9.8337 -0.01839,10.20157 -0.584985,11.69788 -0.797333,2.10569 -2.957251,4.27736 -5.105506,5.13328 -1.471322,0.58621 -2.004902,0.63812 -7.406384,0.72059 -4.429599,0.0676 -5.89988,0.009 -6.151563,-0.24474 z m 10.759232,-6.16924 c 1.534408,-0.79347 1.61004,-1.3152 1.61004,-11.10649 0,-9.80265 -0.07634,-10.34871 -1.553517,-11.11259 -0.91145,-0.47133 -2.991994,-0.5492 -3.755544,-0.14056 -0.493281,0.264 -0.511773,0.66838 -0.511773,11.19188 0,8.13898 0.08081,10.99879 0.3175,11.23548 0.441944,0.44194 2.993538,0.39756 3.893294,-0.0677 z m 15.012506,5.98678 c -0.397703,-0.43945 -0.437883,-2.01375 -0.437883,-17.15691 0,-15.81656 0.02484,-16.69555 0.483854,-17.11093 0.427612,-0.38699 1.407023,-0.43789 8.425659,-0.43789 9.3893668,0 8.8175708,-0.19437 8.8175708,2.9974 0,3.08758 -7.78e-4,3.08802 -5.5033338,3.08802 -3.104443,0 -4.540752,0.0958 -4.7625,0.3175 -0.210449,0.21045 -0.3175,1.35231 -0.3175,3.38667 0,2.03435 0.107051,3.17621 0.3175,3.38666 0.217192,0.21719 1.506866,0.3175 4.082143,0.3175 4.686088,0 4.596191,-0.0623 4.596191,3.18459 0,2.0556 -0.06469,2.38767 -0.511773,2.62694 -0.281474,0.15064 -2.075238,0.27389 -3.986144,0.27389 -1.910905,0 -3.704669,0.12325 -3.986144,0.27389 -0.472749,0.25301 -0.511773,0.59194 -0.511773,4.445 0,2.89142 0.09741,4.26852 0.3175,4.48861 0.223613,0.22361 1.737138,0.3175 5.118368,0.3175 5.8295378,0 5.6766328,-0.0832 5.6766328,3.08868 0,3.19405 0.604065,2.99674 -9.1740968,2.99674 -7.614198,0 -8.237987,-0.0349 -8.644271,-0.48386 z m 63.255079,0.15313 c -0.385855,-0.29179 -0.446328,-1.23422 -0.513593,-8.00365 l -0.07624,-7.67292 -3.382317,-9.2226 c -2.651644,-7.23028 -3.31624,-9.30223 -3.076456,-9.59115 0.223043,-0.26875 1.002374,-0.36854 2.878288,-0.36854 2.122419,0 2.646373,0.0817 2.995126,0.46708 0.232484,0.25689 1.139872,2.95557 2.016411,5.99706 0.876511,3.04149 1.716802,5.65308 1.867244,5.80355 0.482335,0.48232 0.752104,-0.12257 1.992074,-4.46684 1.657086,-5.8056 1.991201,-6.8032 2.457556,-7.33783 0.332793,-0.38152 0.856615,-0.46302 2.976298,-0.46302 1.875922,0 2.655252,0.0998 2.878296,0.36854 0.239792,0.28892 -0.424815,2.36087 -3.076443,9.59115 l -3.382327,9.2226 -0.132292,7.74912 c -0.110966,6.50031 -0.196241,7.78948 -0.529166,7.99959 -0.602827,0.38046 -5.371148,0.32208 -5.892457,-0.0721 z M -162.23443,165.03666 c -0.43409,-0.25283 -0.46303,-1.44228 -0.46303,-19.03264 0,-18.2796 0.0132,-18.77002 0.51178,-19.03686 0.28733,-0.15377 2.24703,-0.27389 4.4686,-0.27389 3.39532,0 4.03011,0.0657 4.47318,0.46302 0.51849,0.46495 0.66568,1.13803 2.15528,9.85573 1.72448,10.09226 1.8222,10.48731 2.44099,9.86851 0.25728,-0.25728 1.08986,-4.46452 2.89537,-14.63101 0.73634,-4.14617 0.98166,-4.97377 1.56723,-5.28716 0.27674,-0.14811 2.2882,-0.26909 4.47393,-0.26909 3.80373,0 3.9885,0.0248 4.38302,0.58804 0.36204,0.51688 0.41188,2.57476 0.41188,17.00675 0,14.432 -0.0498,16.48988 -0.41188,17.00676 -0.3738,0.53367 -0.63227,0.58804 -2.79552,0.58804 -3.78613,0 -3.40719,1.39881 -3.40719,-12.57702 0,-11.85284 -0.008,-12.02923 -0.52916,-12.02923 -0.29105,0 -0.52917,0.0919 -0.52917,0.20421 0,0.11231 -0.5443,3.4163 -1.20955,7.34218 -0.66526,3.92589 -1.312,7.79283 -1.43721,8.59319 -0.80915,5.17231 -1.31491,7.49113 -1.73518,7.95553 -0.34245,0.3784 -0.81453,0.51114 -1.81791,0.51114 -1.6438,0 -2.40812,-0.48122 -2.60993,-1.64322 -0.9719,-5.59611 -2.64963,-15.47373 -2.82175,-16.61303 -0.63734,-4.21879 -1.13837,-6.35 -1.49283,-6.35 -0.31128,0 -0.36939,2.11348 -0.36939,13.43487 0,11.7314 -0.0522,13.50944 -0.41188,14.02292 -0.37565,0.53631 -0.62585,0.58733 -2.84427,0.57999 -1.33782,-0.004 -2.64075,-0.1294 -2.89541,-0.27773 z m -21.02963,-3.2528 c -2.01909,-0.76494 -3.25929,-1.68382 -4.25165,-3.15008 -1.6857,-2.49071 -1.64008,-2.00715 -1.64008,-17.38447 0,-13.57876 0.0157,-14.01665 0.51177,-14.28215 0.28148,-0.15064 1.64219,-0.27389 3.02381,-0.27389 1.9309,0 2.60823,0.0962 2.92781,0.41578 0.36701,0.367 0.41578,1.98381 0.41578,13.78365 0,11.99722 0.0452,13.44436 0.4406,14.11377 0.90182,1.52666 2.99557,1.78848 4.38387,0.54819 l 0.86407,-0.77195 0.0719,-17.13334 c 0.0502,-11.98141 0.15944,-17.23888 0.36312,-17.4843 0.42064,-0.50685 5.86285,-0.49515 6.285,0.0135 0.22187,0.26733 0.28338,5.0798 0.23083,18.05781 l -0.0716,17.69336 -0.65301,1.32292 c -0.94491,1.91427 -2.78233,3.64272 -4.6543,4.37828 -2.3584,0.92669 -6.02597,0.9947 -8.24784,0.15293 z m 55.55775,-0.19902 c -0.47086,-0.47977 -0.48373,-34.10357 -0.0132,-34.57407 0.41316,-0.41315 10.31978,-0.43629 12.52171,-0.0292 4.01005,0.7413 6.58172,3.35983 7.27457,7.40715 0.52465,3.06476 -0.40236,6.38452 -2.29506,8.219 -0.48696,0.47198 -0.88342,0.98362 -0.88101,1.13698 0.002,0.15335 0.52226,0.77885 1.15523,1.39 3.59412,3.47017 3.70063,10.44042 0.21359,13.97806 -0.53698,0.54477 -1.75023,1.36115 -2.69611,1.81417 l -1.71979,0.82367 -6.61459,0.0856 c -5.09975,0.066 -6.69032,0.008 -6.94531,-0.25136 z m 12.13171,-6.65646 c 1.04353,-0.70163 1.52487,-1.87413 1.54407,-3.76115 0.0187,-1.84228 -0.41029,-3.18828 -1.21901,-3.82442 -0.5729,-0.45064 -1.07166,-0.5412 -2.98068,-0.5412 -1.43039,0 -2.41206,0.11941 -2.61015,0.3175 -0.21611,0.21611 -0.3175,1.47746 -0.3175,3.94985 0,4.44723 0.0103,4.4639 2.7579,4.4639 1.56761,0 2.09376,-0.11257 2.82537,-0.60448 z m -0.59456,-14.06005 c 1.04697,-0.54141 1.36129,-1.46429 1.36129,-3.99687 0,-2.08874 -0.0493,-2.2875 -0.76621,-3.08987 -0.71528,-0.80055 -0.9002,-0.86431 -2.78208,-0.95934 -1.34525,-0.0679 -2.14657,0.007 -2.40879,0.2243 -0.51227,0.42515 -0.57881,7.37792 -0.0754,7.88131 0.44812,0.44812 3.77141,0.40577 4.67121,-0.0595 z m 15.00623,20.59875 c -0.36923,-0.36922 -0.41577,-2.29248 -0.41577,-17.17902 0,-14.88653 0.0465,-16.80979 0.41577,-17.17901 0.3499,-0.3499 1.243484,-0.41578 5.639954,-0.41578 2.87329,0 5.93065,0.12937 6.79412,0.28749 4.05756,0.74303 6.64246,3.49213 7.30785,7.77204 0.55368,3.5614 -0.36431,6.55252 -2.78447,9.07281 l -1.08034,1.12504 1.22438,1.25621 c 2.31803,2.37827 2.44619,2.84211 2.54713,9.21875 0.10776,6.80716 0.21154,6.58089 -2.93484,6.39875 -1.91412,-0.11081 -2.15402,-0.18962 -2.92656,-0.9614 l -0.84153,-0.84069 -0.14718,-5.08898 c -0.19222,-6.64643 -0.46407,-7.17747 -3.85417,-7.52905 -1.14267,-0.1185 -1.44386,-0.0522 -1.91823,0.42215 -0.54323,0.54323 -0.56272,0.78684 -0.56272,7.0357 0,6.12886 -0.0272,6.48754 -0.51177,6.74688 -0.28147,0.15064 -1.64219,0.27389 -3.02381,0.27389 -1.930894,0 -2.608224,-0.0962 -2.927814,-0.41578 z m 11.397054,-19.93765 c 1.07918,-0.65805 1.52592,-1.98941 1.5158,-4.51741 -0.014,-3.49661 -1.07821,-4.76613 -3.98892,-4.75845 -2.35956,0.006 -2.31579,-0.0739 -2.41245,4.41898 -0.0494,2.29708 0.0299,4.21419 0.19188,4.64037 0.26363,0.69339 0.35707,0.72614 2.06859,0.7252 1.30023,-8e-4 2.02114,-0.14042 2.6251,-0.50869 z m 15.6377,20.06765 c -0.43339,-0.25243 -0.46302,-1.36039 -0.46302,-17.31285 0,-16.5793 0.0139,-17.05063 0.51177,-17.31707 0.69376,-0.37128 15.745198,-0.37128 16.438954,0 0.44708,0.23928 0.511773,0.57135 0.511773,2.62694 0,3.29576 0.184727,3.18459 -5.291666,3.18459 -3.701871,0 -4.530801,0.0707 -4.875891,0.41577 -0.32515,0.32516 -0.41578,1.02098 -0.41578,3.1924 0,1.52714 0.12325,3.00692 0.2739,3.28839 0.25141,0.46977 0.58804,0.51177 4.101037,0.51177 4.811583,0 4.885484,0.0474 4.885484,3.134 0,2.93825 -0.02087,2.95142 -4.67618,2.95142 -4.831471,0 -4.584241,-0.26052 -4.584241,4.83058 0,3.15892 0.0758,3.93864 0.41578,4.27865 0.34756,0.34756 1.207,0.41577 5.238748,0.41577 3.398425,0 4.916755,0.0938 5.140476,0.3175 0.201253,0.20125 0.3175,1.21501 0.3175,2.76882 0,2.15275 -0.06233,2.48467 -0.511773,2.72521 -0.687506,0.36794 -16.383571,0.35698 -17.016871,-0.0119 z m 24.077082,0 c -0.434068,-0.25282 -0.463021,-1.44021 -0.463021,-18.98904 0,-14.20672 0.07654,-18.79589 0.3175,-19.03685 0.205216,-0.20522 1.266767,-0.3175 3.001701,-0.3175 2.264391,0 2.752688,0.0757 3.122083,0.48385 0.396946,0.43862 0.437883,1.93019 0.437883,15.95438 0,11.67985 0.07779,15.54832 0.3175,15.78802 0.217085,0.21709 1.503865,0.3175 4.068646,0.3175 4.56375,0 4.477396,-0.0599 4.477396,3.1047 0,1.90172 -0.07553,2.28485 -0.513591,2.60517 -0.413168,0.30212 -1.861722,0.37397 -7.408334,0.3675 -4.188928,-0.005 -7.076453,-0.11388 -7.357763,-0.27773 z m 21.084945,-0.0897 c -0.497647,-0.3638 -0.515623,-0.88742 -0.579033,-16.86719 -0.05137,-12.94475 0.0071,-16.63399 0.27177,-17.15319 0.322633,-0.63286 0.455652,-0.66473 3.076667,-0.73724 2.273586,-0.0629 2.823549,2.6e-4 3.23396,0.37174 0.470906,0.42616 0.494504,1.10589 0.494504,14.24422 0,10.37799 0.07867,13.87537 0.3175,14.1142 0.216921,0.21692 1.499306,0.3175 4.048125,0.3175 2.548819,0 3.831204,0.10058 4.048125,0.3175 0.201253,0.20125 0.3175,1.21501 0.3175,2.76882 0,2.15275 -0.06233,2.48467 -0.511773,2.72521 -0.314952,0.16855 -3.144623,0.27389 -7.357764,0.27389 -5.494086,0 -6.94741,-0.0742 -7.359581,-0.37546 z m 20.3091178,0.058 c -0.411501,-0.4115 -0.400222,-0.93665 0.06306,-2.93542 0.209304,-0.90303 0.626022,-2.80273 0.926041,-4.22156 1.328563,-6.28298 1.668307,-7.87387 2.132987,-9.98802 0.27187,-1.23693 0.731242,-3.38006 1.020826,-4.7625 2.347015,-11.20443 2.606479,-12.25283 3.126692,-12.63386 0.305157,-0.22351 1.54068699,-0.33073 3.811241,-0.33073 4.004564,0 4.305546,0.15198 4.715886,2.38125 0.147323,0.80037 0.63405,3.12209 1.081617,5.15938 0.447566,2.03729 0.981681,4.5376 1.186921,5.55625 0.205239,1.01864 0.6245592,2.98318 0.9318172,4.36562 0.307258,1.38245 0.726578,3.34698 0.931818,4.36563 0.20524,1.01864 0.742545,3.51896 1.194009,5.55625 1.288944,5.81651 1.487474,7.26866 1.033055,7.55618 -0.209415,0.13251 -1.528427,0.24275 -2.931134,0.24498 -3.3400392,0.005 -3.5060782,-0.13128 -4.0423122,-3.32521 -0.221914,-1.32177 -0.556033,-2.86958 -0.742487,-3.43958 l -0.339008,-1.03637 -2.816066,-0.0748 c -2.18330501,-0.058 -2.90226501,0.0114 -3.19968901,0.30881 -0.210992,0.21099 -0.65208099,1.82386 -0.98019899,3.58416 -0.475385,2.55036 -0.710639,3.28044 -1.158028,3.5938 -0.713465,0.49973 -5.462572,0.56023 -5.947043,0.0758 z m 12.911665,-13.30856 c 0.326839,-0.39382 0.259892,-1.06453 -1.067173,-10.6914 -0.24025,-1.74283 -0.599626,-2.45 -1.014016,-1.99538 -0.23122,0.25368 -0.749824,3.4458 -1.49642801,9.21084 -0.307975,2.37808 -0.33265,3.2276 -0.101822,3.50573 0.43133901,0.51973 3.24226201,0.49697 3.67943901,-0.0298 z M -29.196257,119.39833 c -0.367287,-0.36728 -0.415774,-2.01587 -0.415774,-14.13631 0,-12.120431 -0.04849,-13.769021 -0.415774,-14.136311 -0.310973,-0.31097 -0.967555,-0.41577 -2.604826,-0.41577 -2.865787,0 -3.064817,-0.20058 -3.064817,-3.08868 0,-3.20364 -0.662326,-2.99674 9.59308,-2.99674 7.488471,0 8.680175,0.0548 9.041146,0.41578 0.310973,0.31097 0.415774,0.96755 0.415774,2.60482 0,2.89519 -0.180033,3.06482 -3.252671,3.06482 -1.988285,0 -2.320523,0.0665 -2.558854,0.51177 -0.178628,0.33377 -0.273891,5.25055 -0.273891,14.136311 0,12.03317 -0.04857,13.6731 -0.415775,14.04031 -0.321736,0.32174 -1.005644,0.41578 -3.023809,0.41578 -2.018165,0 -2.702073,-0.094 -3.023809,-0.41578 z m 17.893393,0.0983 c -0.458907,-0.45891 -0.458907,-34.095681 0,-34.554591 0.205216,-0.20521 1.266767,-0.3175 3.0016998,-0.3175 2.264392,0 2.752689,0.0757 3.122084,0.48386 0.38182,0.4219 0.437883,1.29588 0.437883,6.82625 0,4.58019 0.08821,6.43061 0.3175,6.65989 0.50229,0.50229 4.83106099,0.42281 5.35214199,-0.0983 0.35971501,-0.35972 0.41577401,-1.49873 0.41577401,-8.44777 0,-6.94903 0.05606,-8.08805 0.415775,-8.44777 0.319587,-0.31958 0.996918,-0.41577 2.92781,-0.41577 3.9834,0 3.535582,-2.4464 3.535582,19.314581 0,21.76098 0.447818,19.31459 -3.535582,19.31459 -1.930892,0 -2.608223,-0.0962 -2.92781,-0.41578 -0.355674,-0.35567 -0.415775,-1.36644 -0.415775,-6.99256 0,-5.62612 -0.0601,-6.63688 -0.41577401,-6.99256 -0.521081,-0.52108 -4.84985199,-0.60056 -5.35214199,-0.0983 -0.229719,0.22972 -0.3175,2.11534 -0.3175,6.82029 0,8.14671 0.215307,7.67888 -3.533961,7.67888 -1.7551608,0 -2.8220898,-0.11189 -3.0277058,-0.3175 z m 26.8433,-0.16636 c -0.397703,-0.43945 -0.437883,-2.01375 -0.437883,-17.15691 0,-15.816561 0.02485,-16.695551 0.483854,-17.110931 0.427683,-0.38705 1.40883,-0.43789 8.451665,-0.43789 9.342853,0 8.791565,-0.19079 8.791565,3.04271 0,3.0732 0.05397,3.04271 -5.386044,3.04271 -3.195669,0 -4.657397,0.0951 -4.87979,0.3175 -0.210449,0.21045 -0.3175,1.35231 -0.3175,3.38667 0,2.03435 0.107051,3.17621 0.3175,3.38666 0.217017,0.21702 1.501953,0.3175 4.060034,0.3175 4.650171,0 4.6183,-0.0221 4.6183,3.209071 0,1.39049 -0.120529,2.36188 -0.3175,2.55885 -0.216414,0.21641 -1.485533,0.3175 -3.986144,0.3175 -2.022914,0 -3.898223,0.12287 -4.180417,0.27389 -0.472749,0.25301 -0.511773,0.59194 -0.511773,4.445 0,2.89142 0.09741,4.26852 0.3175,4.48861 0.223613,0.22361 1.737138,0.3175 5.118367,0.3175 5.829539,0 5.676633,-0.0832 5.676633,3.08868 0,3.19405 0.604065,2.99674 -9.174096,2.99674 -7.614198,0 -8.237987,-0.0349 -8.644271,-0.48386 z M -202.64954,108.39449 c -5.57418,-5.05233 -13.09361,-6.22447 -19.97604,-3.11388 -0.87313,0.39462 -2.18243,1.14718 -2.90957,1.67237 -1.43884,1.03921 -1.77329,1.13217 -2.2044,0.61271 -0.20547,-0.24757 -0.13769,-0.92413 0.24518,-2.44739 4.5508,-18.105661 18.62893,-33.344291 36.17568,-39.157761 4.04409,-1.33986 7.80117,-2.14737 12.34936,-2.65424 2.18281,-0.24326 4.00279,-0.47171 4.0444,-0.50765 0.0816,-0.0705 0.35347,-2.67951 0.86817,-8.3307 0.4742,-5.20655 0.62844,-5.40665 1.01903,-1.32205 0.40399,4.22476 1.03339,9.56417 1.13802,9.65427 0.0408,0.0351 1.86007,0.26287 4.04288,0.50613 4.67239,0.52072 8.60063,1.37859 12.36148,2.69959 17.57475,6.17312 31.04054,20.67203 35.95122,38.709451 0.55527,2.03955 0.67609,2.85158 0.46256,3.10886 -0.44491,0.53608 -0.70934,0.44453 -2.71942,-0.9415 -3.36868,-2.32286 -6.44066,-3.30332 -10.33709,-3.2992 -4.37641,0.005 -8.309,1.45111 -11.71103,4.30757 -1.05088,0.88236 -2.04176,1.60429 -2.20197,1.60429 -0.1602,0 -1.00785,-0.64847 -1.88366,-1.44104 -3.6015,-3.25916 -9.26549,-5.05952 -13.84557,-4.40095 -3.98774,0.57339 -7.31266,2.08892 -10.05948,4.58522 -0.7606,0.69122 -1.52348,1.25677 -1.69531,1.25677 -0.17182,0 -0.94843,-0.56076 -1.72579,-1.24613 -2.97706,-2.62475 -6.10244,-4.04116 -10.16344,-4.60603 -4.56941,-0.6356 -10.29897,1.21139 -13.79311,4.44634 -0.83515,0.7732 -1.68113,1.40093 -1.87996,1.39497 -0.19884,-0.006 -0.8973,-0.49648 -1.55214,-1.09002 z"
       style="fill:#000000;stroke-width:0.264583" />
  </g>
</svg>
